<svg viewBox="0 0 400 300" xmlns="http://www.w3.org/2000/svg">
  <!-- Background -->
  <rect width="400" height="300" fill="#2C1810"/>
  
  <!-- Ambient glow from windows -->
  <circle cx="50" cy="80" r="60" fill="#462911" opacity="0.3"/>
  <circle cx="350" cy="80" r="60" fill="#462911" opacity="0.3"/>
  
  <!-- Central Hearth glow -->
  <circle cx="200" cy="150" r="80" fill="#4A1F0E" opacity="0.5"/>
  <circle cx="200" cy="150" r="60" fill="#662A0E" opacity="0.6"/>
  <circle cx="200" cy="150" r="40" fill="#8B3A10" opacity="0.7"/>
  
  <!-- Abstract flame -->
  <path d="M180,150 Q200,120 220,150 Q200,180 180,150" fill="#D35F0E" opacity="0.9">
    <animate attributeName="d" 
             dur="3s"
             repeatCount="indefinite"
             values="
               M180,150 Q200,120 220,150 Q200,180 180,150;
               M185,150 Q200,110 215,150 Q200,175 185,150;
               M180,150 Q200,120 220,150 Q200,180 180,150
             "/>
  </path>
  
  <!-- Supporting beams -->
  <line x1="100" y1="40" x2="300" y2="40" stroke="#3D2815" stroke-width="8"/>
  <line x1="80" y1="0" x2="80" y2="300" stroke="#3D2815" stroke-width="8"/>
  <line x1="320" y1="0" x2="320" y2="300" stroke="#3D2815" stroke-width="8"/>
  
  <!-- Tables (abstract shapes) -->
  <circle cx="100" cy="220" r="20" fill="#3D2815" opacity="0.6"/>
  <circle cx="300" cy="220" r="20" fill="#3D2815" opacity="0.6"/>
  
  <!-- Quest board (abstract rectangle) -->
  <rect x="300" y="100" width="40" height="60" fill="#3D2815" opacity="0.8"/>
  
  <!-- Bar (abstract shape) -->
  <rect x="60" y="100" width="40" height="100" fill="#3D2815" opacity="0.8"/>
  
  <!-- Subtle stars through ceiling cracks -->
  <circle cx="150" cy="30" r="1" fill="#FFF5E6" opacity="0.4"/>
  <circle cx="250" cy="25" r="1" fill="#FFF5E6" opacity="0.4"/>
  <circle cx="200" cy="35" r="1" fill="#FFF5E6" opacity="0.4"/>
</svg>
